/* XPM */
static const char *ProyectoUnoFrm_WxToolButton1_XPM[]={
/* ProyectoUnoFrm_WxToolButton1 */
"20 20 100 2",
"      c None",
" 0    c #010901",
" 1    c #073507",
" 2    c #0D640D",
" 3    c #107C10",
" 4    c #107B10",
" 5    c #107D10",
" 6    c #0E6C0E",
" 7    c #094309",
" 8    c #021002",
" 9    c #062C06",
" a    c #0E6D0E",
" b    c #107E10",
" c    c #107F10",
" d    c #0F740F",
" e    c #083F08",
" f    c #000100",
" g    c #094609",
" h    c #118111",
" i    c #117F11",
" j    c #118311",
" k    c #0C5C0C",
" l    c #010801",
" m    c #118411",
" n    c #0C5F0C",
" o    c #010401",
" p    c #052B05",
" q    c #118211",
" r    c #0F7B0F",
" s    c #094709",
" t    c #0A770A",
" u    c #097709",
" v    c #0C790C",
" w    c #117B11",
" x    c #117E11",
" y    c #031903",
" z    c #073407",
" A    c #017301",
" B    c #4F9D4F",
" C    c #A9D0A9",
" D    c #228522",
" E    c #094909",
" F    c #0B790B",
" G    c #459845",
" H    c #EFF6EF",
" I    c #FFFFFF",
" J    c #65AA65",
" K    c #047504",
" L    c #0F6E0F",
" M    c #238523",
" N    c #1C821C",
" O    c #F0F7F0",
" P    c #89BD89",
" Q    c #0A780A",
" R    c #0B780B",
" S    c #268726",
" T    c #DDECDD",
" U    c #C1DDC1",
" V    c #137D13",
" W    c #89BE89",
" X    c #037403",
" Y    c #0D7A0D",
" Z    c #258725",
" &    c #D4E8D4",
"0     c #BBD9BB",
"00    c #419641",
"01    c #077607",
"02    c #1F841F",
"03    c #CDE4CD",
"04    c #C6E0C6",
"05    c #E9F3E9",
"06    c #0E7A0E",
"07    c #067606",
"08    c #1F831F",
"09    c #0F730F",
"0a    c #094109",
"0b    c #218421",
"0c    c #90C290",
"0d    c #0B540B",
"0e    c #020F02",
"0f    c #097809",
"0g    c #187F18",
"0h    c #042404",
"0i    c #083E08",
"0j    c #0D790D",
"0k    c #0F7A0F",
"0l    c #0C5A0C",
"0m    c #000200",
"0n    c #0F710F",
"0o    c #020E02",
"0p    c #0C5E0C",
"0q    c #031703",
"0r    c #010501",
"0s    c #094809",
"0t    c #0C5B0C",
"0u    c #041C04",
"0v    c #0A4A0A",
"0w    c #0E6E0E",
"0x    c #0B560B",
"0y    c #052605",
"           0 1 2 3 4 4 5 6 7 8          ",
"         9 a b b 4 4 4 4 5 c d e f      ",
"       g h i 4 4 4 4 4 4 4 4 b j k l    ",
"     g m 3 4 4 4 4 4 4 4 4 4 4 4 m n o  ",
"   p q 3 4 4 4 4 4 4 4 4 4 4 r 4 4 m s  ",
" l 6 c 4 4 4 4 4 4 4 4 4 4 t u v w 3 x y",
" z b 4 4 4 4 4 4 4 4 4 4 A B C D v 4 q E",
" 2 b 4 4 w F v 4 4 4 4 A G H I J K 4 b L",
" 3 4 4 w u M N t w 4 A G O I P Q r 4 4 4",
" 4 4 4 R S T U V u A G O I W X Y 4 4 4 4",
" 4 4 4 R Z & I0  v00 O I W X Y 4 4 4 4 4",
" 5 4 4 w010203 I0405 I W X06 4 4 4 4 4 3",
" 6 5 4 4 w070803 I I W X Y 4 4 4 4 4 509",
"0a c 4 4 4 w070b030c X Y 4 4 4 4 4 4 h0d",
"0e d 5 4 4 4 w0f0g0606 4 4 4 4 4 4 4 h0h",
"  0i m 4 4 4 4 40j0k 4 4 4 4 4 4 4 q0l0m",
"   f k m 4 4 4 4 4 4 4 4 4 4 4 4 h0n0o  ",
"     l0p m 3 4 4 4 4 4 4 4 4 4 q0n0q    ",
"      0r0s b q 5 4 4 4 4 3 h h0t0e      ",
"          0u0v0w 4 4 4 3090x0y          "};

